STARTFONT 2.1
FONT -Bitstream-Terminal-Bold-R-Wide--18-140-100-100-C-140-DEC-DECtech
SIZE 14 100 100
FONTBOUNDINGBOX 14 21 0 -5

STARTPROPERTIES 25
CHARSET_REGISTRY "DEC"
CHARSET_ENCODING "DECtech"
CAP_HEIGHT 11
X_HEIGHT 9
AVERAGE_WIDTH 140
FONTNAME_REGISTRY ""
FAMILY_NAME "Terminal"
FOUNDRY "Bitstream"
WEIGHT_NAME "Bold"
SETWIDTH_NAME "Wide"
SLANT "R"
ADD_STYLE_NAME ""
PIXEL_SIZE 18
POINT_SIZE 140
RESOLUTION_X 100
RESOLUTION_Y 100
SPACING "C"
CHARSET_COLLECTIONS "DEC-DECtech"
FULL_NAME "Terminal Bold Wide"
COPYRIGHT "Copyright (c) 1988 Bitstream, Inc., Copyright 1990 Digital Equipment Corp. All rights reserved."
WEIGHT 10
QUAD_WIDTH 14
DEFAULT_CHAR 159
FONT_DESCENT 5
FONT_ASCENT 15
ENDPROPERTIES

CHARS 181

STARTCHAR space
ENCODING 32
SWIDTH 720 0
DWIDTH 14 0
BBX 1 1 0 0
BITMAP
00
ENDCHAR

STARTCHAR exclam
ENCODING 33
SWIDTH 720 0
DWIDTH 14 0
BBX 6 11 4 0
BITMAP
78
78
78
78
78
78
78
00
78
FC
78
ENDCHAR

STARTCHAR quotedbl
ENCODING 34
SWIDTH 720 0
DWIDTH 14 0
BBX 8 5 3 6
BITMAP
E7
E7
E7
E7
E7
ENDCHAR

STARTCHAR numbersign
ENCODING 35
SWIDTH 720 0
DWIDTH 14 0
BBX 12 13 1 -2
BITMAP
39C0
39C0
39C0
FFF0
FFF0
39C0
39C0
FFF0
FFF0
39C0
39C0
39C0
39C0
ENDCHAR

STARTCHAR dollar
ENCODING 36
SWIDTH 720 0
DWIDTH 14 0
BBX 12 15 1 -3
BITMAP
0700
0700
3FB0
7FF0
F070
F000
7F80
3FE0
00F0
E0F0
FFE0
DFC0
0E00
0E00
0E00
ENDCHAR

STARTCHAR percent
ENCODING 37
SWIDTH 720 0
DWIDTH 14 0
BBX 14 11 0 0
BITMAP
3F00
F3C0
F3C0
3F1C
00FC
0FC0
FC00
E3F0
0F3C
0F3C
03F0
ENDCHAR

STARTCHAR ampersand
ENCODING 38
SWIDTH 720 0
DWIDTH 14 0
BBX 12 11 1 0
BITMAP
0EC0
3FC0
3CC0
3C00
0E00
3E00
FF30
F3F0
F3C0
FFF0
3CF0
ENDCHAR

STARTCHAR quoteright
ENCODING 39
SWIDTH 720 0
DWIDTH 14 0
BBX 7 5 3 8
BITMAP
1E
3C
38
70
E0
ENDCHAR

STARTCHAR parenleft
ENCODING 40
SWIDTH 720 0
DWIDTH 14 0
BBX 8 16 3 -3
BITMAP
07
1E
3C
78
78
F0
F0
F0
F0
F0
F0
78
78
3C
1E
07
ENDCHAR

STARTCHAR parenright
ENCODING 41
SWIDTH 720 0
DWIDTH 14 0
BBX 8 16 3 -3
BITMAP
E0
78
3C
1E
1E
0F
0F
0F
0F
0F
0F
1E
1E
3C
78
E0
ENDCHAR

STARTCHAR asterisk
ENCODING 42
SWIDTH 720 0
DWIDTH 14 0
BBX 10 7 2 2
BITMAP
0C00
0C00
EDC0
FFC0
1E00
7380
E1C0
ENDCHAR

STARTCHAR plus
ENCODING 43
SWIDTH 720 0
DWIDTH 14 0
BBX 12 8 1 1
BITMAP
0F00
0F00
0F00
FFF0
FFF0
0F00
0F00
0F00
ENDCHAR

STARTCHAR comma
ENCODING 44
SWIDTH 720 0
DWIDTH 14 0
BBX 6 5 4 -2
BITMAP
3C
3C
78
F0
E0
ENDCHAR

STARTCHAR minus
ENCODING 45
SWIDTH 720 0
DWIDTH 14 0
BBX 10 2 2 4
BITMAP
FFC0
FFC0
ENDCHAR

STARTCHAR period
ENCODING 46
SWIDTH 720 0
DWIDTH 14 0
BBX 6 3 4 0
BITMAP
78
FC
78
ENDCHAR

STARTCHAR slash
ENCODING 47
SWIDTH 720 0
DWIDTH 14 0
BBX 11 12 2 0
BITMAP
01E0
03C0
03C0
0780
0F80
0F00
1E00
1E00
3C00
3C00
7800
F000
ENDCHAR

STARTCHAR zero
ENCODING 48
SWIDTH 720 0
DWIDTH 14 0
BBX 12 11 1 0
BITMAP
0F00
3FC0
79E0
F0F0
F0F0
F0F0
F0F0
F0F0
79E0
3FC0
0F00
ENDCHAR

STARTCHAR one
ENCODING 49
SWIDTH 720 0
DWIDTH 14 0
BBX 10 11 2 0
BITMAP
1E00
3E00
FE00
DE00
1E00
1E00
1E00
1E00
1E00
FFC0
FFC0
ENDCHAR

STARTCHAR two
ENCODING 50
SWIDTH 720 0
DWIDTH 14 0
BBX 11 11 1 0
BITMAP
3F80
FFE0
E1E0
C1E0
03C0
0780
1E00
3800
7060
FFE0
FFE0
ENDCHAR

STARTCHAR three
ENCODING 51
SWIDTH 720 0
DWIDTH 14 0
BBX 11 11 1 0
BITMAP
3F80
FFE0
E1E0
01E0
1F80
1FE0
01E0
01E0
E1E0
FFE0
3F80
ENDCHAR

STARTCHAR four
ENCODING 52
SWIDTH 720 0
DWIDTH 14 0
BBX 11 11 1 0
BITMAP
0780
0F80
1F80
3780
6780
E780
FFE0
FFE0
0780
0780
0780
ENDCHAR

STARTCHAR five
ENCODING 53
SWIDTH 720 0
DWIDTH 14 0
BBX 11 11 1 0
BITMAP
FFE0
FFE0
F000
F000
FF80
FFE0
01E0
01E0
E1E0
FFC0
3F80
ENDCHAR

STARTCHAR six
ENCODING 54
SWIDTH 720 0
DWIDTH 14 0
BBX 11 11 1 0
BITMAP
07C0
1FC0
3C00
7800
7F80
FFC0
F1E0
F1E0
F1E0
7FC0
3F80
ENDCHAR

STARTCHAR seven
ENCODING 55
SWIDTH 720 0
DWIDTH 14 0
BBX 11 11 1 0
BITMAP
FFE0
FFE0
C1E0
01C0
03C0
0380
0780
0700
0F00
0E00
1E00
ENDCHAR

STARTCHAR eight
ENCODING 56
SWIDTH 720 0
DWIDTH 14 0
BBX 11 11 1 0
BITMAP
3F80
FFE0
F1E0
F1E0
3F80
FFE0
F1E0
F1E0
F1E0
FFE0
3F80
ENDCHAR

STARTCHAR nine
ENCODING 57
SWIDTH 720 0
DWIDTH 14 0
BBX 11 11 1 0
BITMAP
3F80
7FC0
F1E0
F1E0
F1E0
7FE0
3FE0
01C0
03C0
7F80
7E00
ENDCHAR

STARTCHAR colon
ENCODING 58
SWIDTH 720 0
DWIDTH 14 0
BBX 6 8 4 0
BITMAP
78
FC
78
00
00
78
FC
78
ENDCHAR

STARTCHAR semicolon
ENCODING 59
SWIDTH 720 0
DWIDTH 14 0
BBX 7 10 3 -2
BITMAP
3C
7E
3C
00
00
3C
3C
78
F0
E0
ENDCHAR

STARTCHAR less
ENCODING 60
SWIDTH 720 0
DWIDTH 14 0
BBX 12 11 1 0
BITMAP
0030
00F0
03F0
0FC0
3F00
FC00
3F00
0FC0
03F0
00F0
0030
ENDCHAR

STARTCHAR equal
ENCODING 61
SWIDTH 720 0
DWIDTH 14 0
BBX 12 6 1 2
BITMAP
FFF0
FFF0
0000
0000
FFF0
FFF0
ENDCHAR

STARTCHAR greater
ENCODING 62
SWIDTH 720 0
DWIDTH 14 0
BBX 12 11 1 0
BITMAP
C000
F000
FC00
3F00
0FC0
03F0
0FC0
3F00
FC00
F000
C000
ENDCHAR

STARTCHAR question
ENCODING 63
SWIDTH 720 0
DWIDTH 14 0
BBX 12 11 1 0
BITMAP
3FE0
FFF0
E0F0
03F0
07C0
0F00
0F00
0000
0F00
1F80
0F00
ENDCHAR

STARTCHAR at
ENCODING 64
SWIDTH 720 0
DWIDTH 14 0
BBX 12 14 1 -2
BITMAP
3FC0
7FE0
F0E0
E0E0
E7E0
EFE0
EEE0
EEE0
EFF0
E7B0
E000
F030
7FF0
3FC0
ENDCHAR

STARTCHAR A
ENCODING 65
SWIDTH 720 0
DWIDTH 14 0
BBX 12 11 1 0
BITMAP
0F00
1F80
3FC0
79E0
F0F0
F0F0
FFF0
FFF0
F0F0
F0F0
F0F0
ENDCHAR

STARTCHAR B
ENCODING 66
SWIDTH 720 0
DWIDTH 14 0
BBX 12 11 1 0
BITMAP
FFC0
FFE0
F0F0
F0F0
FFE0
FFC0
F0F0
F0F0
F0F0
FFF0
FFC0
ENDCHAR

STARTCHAR C
ENCODING 67
SWIDTH 720 0
DWIDTH 14 0
BBX 12 11 1 0
BITMAP
1FB0
7FF0
7870
F070
F000
F000
F000
F000
7870
7FF0
1FC0
ENDCHAR

STARTCHAR D
ENCODING 68
SWIDTH 720 0
DWIDTH 14 0
BBX 12 11 1 0
BITMAP
FF80
FFE0
F1E0
F0F0
F0F0
F0F0
F0F0
F0F0
F1E0
FFE0
FF80
ENDCHAR

STARTCHAR E
ENCODING 69
SWIDTH 720 0
DWIDTH 14 0
BBX 12 11 1 0
BITMAP
FFF0
FFF0
F000
F000
FFC0
FFC0
F000
F000
F000
FFF0
FFF0
ENDCHAR

STARTCHAR F
ENCODING 70
SWIDTH 720 0
DWIDTH 14 0
BBX 12 11 1 0
BITMAP
FFF0
FFF0
F000
F000
F000
FFC0
FFC0
F000
F000
F000
F000
ENDCHAR

STARTCHAR G
ENCODING 71
SWIDTH 720 0
DWIDTH 14 0
BBX 12 11 1 0
BITMAP
1FB0
7FF0
7870
F070
F000
F3F0
F3F0
F0F0
78F0
7FF0
1FC0
ENDCHAR

STARTCHAR H
ENCODING 72
SWIDTH 720 0
DWIDTH 14 0
BBX 12 11 1 0
BITMAP
F0F0
F0F0
F0F0
F0F0
FFF0
FFF0
F0F0
F0F0
F0F0
F0F0
F0F0
ENDCHAR

STARTCHAR I
ENCODING 73
SWIDTH 720 0
DWIDTH 14 0
BBX 12 11 1 0
BITMAP
FFF0
FFF0
0F00
0F00
0F00
0F00
0F00
0F00
0F00
FFF0
FFF0
ENDCHAR

STARTCHAR J
ENCODING 74
SWIDTH 720 0
DWIDTH 14 0
BBX 12 11 1 0
BITMAP
3FF0
3FF0
03C0
03C0
03C0
03C0
E3C0
E3C0
F3C0
FF80
3F00
ENDCHAR

STARTCHAR K
ENCODING 75
SWIDTH 720 0
DWIDTH 14 0
BBX 12 11 1 0
BITMAP
F0F0
F1F0
F3C0
F780
FF00
FF00
FFC0
F3C0
F1E0
F0F0
F0F0
ENDCHAR

STARTCHAR L
ENCODING 76
SWIDTH 720 0
DWIDTH 14 0
BBX 12 11 1 0
BITMAP
FF00
FF00
3C00
3C00
3C00
3C00
3C00
3C30
3C30
FFF0
FFF0
ENDCHAR

STARTCHAR M
ENCODING 77
SWIDTH 720 0
DWIDTH 14 0
BBX 12 11 1 0
BITMAP
E070
F0F0
F0F0
F9F0
F9F0
EF70
F6F0
F6F0
F0F0
F0F0
F0F0
ENDCHAR

STARTCHAR N
ENCODING 78
SWIDTH 720 0
DWIDTH 14 0
BBX 12 11 1 0
BITMAP
F0F0
F8F0
F8F0
FCF0
FCF0
F6F0
F7F0
F3F0
F3F0
F1F0
F0F0
ENDCHAR

STARTCHAR O
ENCODING 79
SWIDTH 720 0
DWIDTH 14 0
BBX 12 11 1 0
BITMAP
1F80
7FE0
79E0
F0F0
F0F0
F0F0
F0F0
F0F0
79E0
7FE0
1F80
ENDCHAR

STARTCHAR P
ENCODING 80
SWIDTH 720 0
DWIDTH 14 0
BBX 12 11 1 0
BITMAP
FFC0
FFF0
F0F0
F0F0
F0F0
FFF0
FFC0
F000
F000
F000
F000
ENDCHAR

STARTCHAR Q
ENCODING 81
SWIDTH 720 0
DWIDTH 14 0
BBX 12 15 1 -4
BITMAP
1F80
7FE0
79E0
F0F0
F0F0
F0F0
F0F0
F0F0
79E0
7FE0
1F80
3800
7E30
EFF0
C3E0
ENDCHAR

STARTCHAR R
ENCODING 82
SWIDTH 720 0
DWIDTH 14 0
BBX 12 11 1 0
BITMAP
FFC0
FFE0
F0F0
F0F0
F0F0
FFE0
FF80
F3C0
F1C0
F1F0
F0F0
ENDCHAR

STARTCHAR S
ENCODING 83
SWIDTH 720 0
DWIDTH 14 0
BBX 12 11 1 0
BITMAP
3F70
FFF0
F0F0
F000
FE00
7FC0
0FF0
00F0
E0F0
FFF0
DFC0
ENDCHAR

STARTCHAR T
ENCODING 84
SWIDTH 720 0
DWIDTH 14 0
BBX 12 11 1 0
BITMAP
FFF0
FFF0
CF30
CF30
0F00
0F00
0F00
0F00
0F00
1F80
1F80
ENDCHAR

STARTCHAR U
ENCODING 85
SWIDTH 720 0
DWIDTH 14 0
BBX 12 11 1 0
BITMAP
F0F0
F0F0
F0F0
F0F0
F0F0
F0F0
F0F0
F0F0
F9F0
7FE0
3FC0
ENDCHAR

STARTCHAR V
ENCODING 86
SWIDTH 720 0
DWIDTH 14 0
BBX 12 11 1 0
BITMAP
F0F0
F0F0
F0F0
F0F0
F0F0
F0F0
70E0
79E0
3FC0
1F80
0F00
ENDCHAR

STARTCHAR W
ENCODING 87
SWIDTH 720 0
DWIDTH 14 0
BBX 12 11 1 0
BITMAP
F0F0
F0F0
F0F0
F0F0
F6F0
F6F0
FFF0
F9F0
70E0
70E0
6060
ENDCHAR

STARTCHAR X
ENCODING 88
SWIDTH 720 0
DWIDTH 14 0
BBX 12 11 1 0
BITMAP
F0F0
F0F0
79E0
3FC0
1F80
0F00
1F80
3FC0
79E0
F0F0
F0F0
ENDCHAR

STARTCHAR Y
ENCODING 89
SWIDTH 720 0
DWIDTH 14 0
BBX 12 11 1 0
BITMAP
F0F0
F0F0
70E0
39C0
39C0
1F80
0F00
0F00
0F00
0F00
0F00
ENDCHAR

STARTCHAR Z
ENCODING 90
SWIDTH 720 0
DWIDTH 14 0
BBX 12 11 1 0
BITMAP
FFF0
FFF0
C1E0
C3C0
0780
0F00
1E00
3C30
7830
FFF0
FFF0
ENDCHAR

STARTCHAR bracketleft
ENCODING 91
SWIDTH 720 0
DWIDTH 14 0
BBX 6 16 4 -3
BITMAP
FC
FC
F0
F0
F0
F0
F0
F0
F0
F0
F0
F0
F0
F0
FC
FC
ENDCHAR

STARTCHAR backslash
ENCODING 92
SWIDTH 720 0
DWIDTH 14 0
BBX 11 12 1 0
BITMAP
F000
7000
7800
3C00
3C00
1E00
0F00
0F00
0780
0780
03C0
01E0
ENDCHAR

STARTCHAR bracketright
ENCODING 93
SWIDTH 720 0
DWIDTH 14 0
BBX 6 16 4 -3
BITMAP
FC
FC
3C
3C
3C
3C
3C
3C
3C
3C
3C
3C
3C
3C
FC
FC
ENDCHAR

STARTCHAR asciicircum
ENCODING 94
SWIDTH 720 0
DWIDTH 14 0
BBX 12 4 1 9
BITMAP
0F00
3FC0
F0F0
C030
ENDCHAR

STARTCHAR ldblank
ENCODING 95
SWIDTH 720 0
DWIDTH 14 0
BBX 1 1 0 0
BITMAP
00
ENDCHAR

STARTCHAR diamond
ENCODING 96
SWIDTH 720 0
DWIDTH 14 0
BBX 12 12 1 0
BITMAP
0600
0F00
1F80
3FC0
7FE0
FFF0
FFF0
7FE0
3FC0
1F80
0F00
0600
ENDCHAR

STARTCHAR checkerboard
ENCODING 97
SWIDTH 720 0
DWIDTH 14 0
BBX 14 20 0 -5
BITMAP
3264
CD98
3264
CD98
3264
CD98
3264
CD98
3264
CD98
3264
CD98
3264
CD98
3264
CD98
3264
CD98
3264
CD98
ENDCHAR

STARTCHAR HT
ENCODING 98
SWIDTH 720 0
DWIDTH 14 0
BBX 13 13 0 -1
BITMAP
EE00
EE00
FE00
EE00
EE00
EE00
0000
03F8
00E0
00E0
00E0
00E0
00E0
ENDCHAR

STARTCHAR FF
ENCODING 99
SWIDTH 720 0
DWIDTH 14 0
BBX 12 13 1 -1
BITMAP
FC00
E000
FC00
E000
E000
E000
0000
03F0
0380
03F0
0380
0380
0380
ENDCHAR

STARTCHAR CR
ENCODING 100
SWIDTH 720 0
DWIDTH 14 0
BBX 13 13 0 -1
BITMAP
3C00
E300
E000
E000
E300
3C00
0000
03F0
03B8
03B0
03E0
03B8
03B8
ENDCHAR

STARTCHAR LF
ENCODING 101
SWIDTH 720 0
DWIDTH 14 0
BBX 12 13 1 -1
BITMAP
E000
E000
E000
E000
E000
FC00
0000
03F0
0380
03F0
0380
0380
0380
ENDCHAR

STARTCHAR degree
ENCODING 102
SWIDTH 720 0
DWIDTH 14 0
BBX 10 6 2 5
BITMAP
3F00
FFC0
E1C0
E1C0
FFC0
3F00
ENDCHAR

STARTCHAR plusminus
ENCODING 103
SWIDTH 720 0
DWIDTH 14 0
BBX 12 11 1 0
BITMAP
0F00
0F00
0F00
FFF0
FFF0
0F00
0F00
0F00
0000
FFF0
FFF0
ENDCHAR

STARTCHAR NL
ENCODING 104
SWIDTH 720 0
DWIDTH 14 0
BBX 14 13 0 -1
BITMAP
E700
F700
F700
EF00
EF00
E700
0000
00E0
00E0
00E0
00E0
00E0
00FC
ENDCHAR

STARTCHAR VT
ENCODING 105
SWIDTH 720 0
DWIDTH 14 0
BBX 13 13 0 -1
BITMAP
EE00
EE00
EE00
EE00
7C00
3800
0000
03F8
00E0
00E0
00E0
00E0
00E0
ENDCHAR

STARTCHAR ldcornsqlr
ENCODING 106
SWIDTH 720 0
DWIDTH 14 0
BBX 9 11 0 4
BITMAP
0780
0780
0780
0780
0780
0780
0780
0780
0780
FF80
FF80
ENDCHAR

STARTCHAR ldcornsqur
ENCODING 107
SWIDTH 720 0
DWIDTH 14 0
BBX 9 11 0 -5
BITMAP
FF80
FF80
0780
0780
0780
0780
0780
0780
0780
0780
0780
ENDCHAR

STARTCHAR ldcornsqul
ENCODING 108
SWIDTH 720 0
DWIDTH 14 0
BBX 9 11 5 -5
BITMAP
FF80
FF80
F000
F000
F000
F000
F000
F000
F000
F000
F000
ENDCHAR

STARTCHAR ldcornsqll
ENCODING 109
SWIDTH 720 0
DWIDTH 14 0
BBX 9 11 5 4
BITMAP
F000
F000
F000
F000
F000
F000
F000
F000
F000
FF80
FF80
ENDCHAR

STARTCHAR ldcross
ENCODING 110
SWIDTH 720 0
DWIDTH 14 0
BBX 14 20 0 -5
BITMAP
0780
0780
0780
0780
0780
0780
0780
0780
0780
FFFC
FFFC
0780
0780
0780
0780
0780
0780
0780
0780
0780
ENDCHAR

STARTCHAR ldscan1
ENCODING 111
SWIDTH 720 0
DWIDTH 14 0
BBX 14 2 0 12
BITMAP
FFFC
FFFC
ENDCHAR

STARTCHAR ldscan3
ENCODING 112
SWIDTH 720 0
DWIDTH 14 0
BBX 14 2 0 8
BITMAP
FFFC
FFFC
ENDCHAR

STARTCHAR ldhorizontal
ENCODING 113
SWIDTH 720 0
DWIDTH 14 0
BBX 14 2 0 4
BITMAP
FFFC
FFFC
ENDCHAR

STARTCHAR ldscan7
ENCODING 114
SWIDTH 720 0
DWIDTH 14 0
BBX 14 2 0 0
BITMAP
FFFC
FFFC
ENDCHAR

STARTCHAR ldscan9
ENCODING 115
SWIDTH 720 0
DWIDTH 14 0
BBX 14 2 0 -4
BITMAP
FFFC
FFFC
ENDCHAR

STARTCHAR ldteelft
ENCODING 116
SWIDTH 720 0
DWIDTH 14 0
BBX 9 20 5 -5
BITMAP
F000
F000
F000
F000
F000
F000
F000
F000
F000
FF80
FF80
F000
F000
F000
F000
F000
F000
F000
F000
F000
ENDCHAR

STARTCHAR ldteert
ENCODING 117
SWIDTH 720 0
DWIDTH 14 0
BBX 9 20 0 -5
BITMAP
0780
0780
0780
0780
0780
0780
0780
0780
0780
FF80
FF80
0780
0780
0780
0780
0780
0780
0780
0780
0780
ENDCHAR

STARTCHAR ldteebt
ENCODING 118
SWIDTH 720 0
DWIDTH 14 0
BBX 14 11 0 4
BITMAP
0780
0780
0780
0780
0780
0780
0780
0780
0780
FFFC
FFFC
ENDCHAR

STARTCHAR ldteetp
ENCODING 119
SWIDTH 720 0
DWIDTH 14 0
BBX 14 11 0 -5
BITMAP
FFFC
FFFC
0780
0780
0780
0780
0780
0780
0780
0780
0780
ENDCHAR

STARTCHAR ldvertical
ENCODING 120
SWIDTH 720 0
DWIDTH 14 0
BBX 4 20 5 -5
BITMAP
F0
F0
F0
F0
F0
F0
F0
F0
F0
F0
F0
F0
F0
F0
F0
F0
F0
F0
F0
F0
ENDCHAR

STARTCHAR lessequal
ENCODING 121
SWIDTH 720 0
DWIDTH 14 0
BBX 12 10 1 0
BITMAP
00F0
07F0
3F80
F800
3F80
07F0
00F0
0000
FFF0
FFF0
ENDCHAR

STARTCHAR greaterequal
ENCODING 122
SWIDTH 720 0
DWIDTH 14 0
BBX 12 10 1 0
BITMAP
F000
FE00
1FC0
01F0
1FC0
FE00
F000
0000
FFF0
FFF0
ENDCHAR

STARTCHAR pi
ENCODING 123
SWIDTH 720 0
DWIDTH 14 0
BBX 12 9 1 0
BITMAP
FFF0
FFF0
79E0
79E0
79E0
71C0
F3C0
F3C0
F3C0
ENDCHAR

STARTCHAR notequal
ENCODING 124
SWIDTH 720 0
DWIDTH 14 0
BBX 12 10 1 0
BITMAP
00C0
0180
FFF0
FFF0
0700
0E00
FFF0
FFF0
1800
3000
ENDCHAR

STARTCHAR sterling
ENCODING 125
SWIDTH 720 0
DWIDTH 14 0
BBX 12 11 1 0
BITMAP
0FC0
3FF0
3C70
3C00
FFC0
FFC0
1E00
1E00
3C30
FFF0
E3C0
ENDCHAR

STARTCHAR periodcentered
ENCODING 126
SWIDTH 720 0
DWIDTH 14 0
BBX 6 3 4 3
BITMAP
78
FC
78
ENDCHAR

STARTCHAR Error
ENCODING 159
SWIDTH 720 0
DWIDTH 14 0
BBX 14 19 0 -4
BITMAP
1FE0
7FF8
FFFC
F83C
F83C
FC3C
FE00
7F00
3F80
0FC0
07C0
07C0
0000
0000
07C0
0FE0
0FE0
0FE0
07C0
ENDCHAR

STARTCHAR ldradicalbt
ENCODING 161
SWIDTH 720 0
DWIDTH 14 0
BBX 9 14 0 1
BITMAP
0780
0780
0780
0780
0780
0780
4780
E780
F780
FF80
BF80
1F80
0F80
0780
ENDCHAR

STARTCHAR ldradicaltp
ENCODING 162
SWIDTH 720 0
DWIDTH 14 0
BBX 9 11 5 -5
BITMAP
FF80
FF80
F000
F000
F000
F000
F000
F000
F000
F000
F000
ENDCHAR

STARTCHAR ldhorizontal
ENCODING 163
SWIDTH 720 0
DWIDTH 14 0
BBX 14 2 0 4
BITMAP
FFFC
FFFC
ENDCHAR

STARTCHAR ldintegraltp
ENCODING 164
SWIDTH 720 0
DWIDTH 14 0
BBX 8 18 5 -5
BITMAP
1F
7F
70
F0
F0
F0
F0
F0
F0
F0
F0
F0
F0
F0
F0
F0
F0
F0
ENDCHAR

STARTCHAR ldintegralbt
ENCODING 165
SWIDTH 720 0
DWIDTH 14 0
BBX 8 18 1 -3
BITMAP
0F
0F
0F
0F
0F
0F
0F
0F
0F
0F
0F
0F
0F
0F
0F
0E
FE
F8
ENDCHAR

STARTCHAR ldvertical
ENCODING 166
SWIDTH 720 0
DWIDTH 14 0
BBX 4 20 5 -5
BITMAP
F0
F0
F0
F0
F0
F0
F0
F0
F0
F0
F0
F0
F0
F0
F0
F0
F0
F0
F0
F0
ENDCHAR

STARTCHAR ldbracketlfttp
ENCODING 167
SWIDTH 720 0
DWIDTH 14 0
BBX 8 18 5 -5
BITMAP
FF
FF
F0
F0
F0
F0
F0
F0
F0
F0
F0
F0
F0
F0
F0
F0
F0
F0
ENDCHAR

STARTCHAR ldbracketlftbt
ENCODING 168
SWIDTH 720 0
DWIDTH 14 0
BBX 8 18 5 -3
BITMAP
F0
F0
F0
F0
F0
F0
F0
F0
F0
F0
F0
F0
F0
F0
F0
F0
FF
FF
ENDCHAR

STARTCHAR ldbracketrttp
ENCODING 169
SWIDTH 720 0
DWIDTH 14 0
BBX 8 18 1 -5
BITMAP
FF
FF
0F
0F
0F
0F
0F
0F
0F
0F
0F
0F
0F
0F
0F
0F
0F
0F
ENDCHAR

STARTCHAR ldbracketrtbt
ENCODING 170
SWIDTH 720 0
DWIDTH 14 0
BBX 8 18 1 -3
BITMAP
0F
0F
0F
0F
0F
0F
0F
0F
0F
0F
0F
0F
0F
0F
0F
0F
FF
FF
ENDCHAR

STARTCHAR ldbracelfttp
ENCODING 171
SWIDTH 720 0
DWIDTH 14 0
BBX 8 18 5 -5
BITMAP
1F
7F
78
F0
F0
F0
F0
F0
F0
F0
F0
F0
F0
F0
F0
F0
F0
F0
ENDCHAR

STARTCHAR ldbracelftbt
ENCODING 172
SWIDTH 720 0
DWIDTH 14 0
BBX 8 18 5 -3
BITMAP
F0
F0
F0
F0
F0
F0
F0
F0
F0
F0
F0
F0
F0
F0
F0
78
7F
1F
ENDCHAR

STARTCHAR ldbracerttp
ENCODING 173
SWIDTH 720 0
DWIDTH 14 0
BBX 8 18 1 -5
BITMAP
F8
FE
1E
0F
0F
0F
0F
0F
0F
0F
0F
0F
0F
0F
0F
0F
0F
0F
ENDCHAR

STARTCHAR ldbracertbt
ENCODING 174
SWIDTH 720 0
DWIDTH 14 0
BBX 8 18 1 -3
BITMAP
0F
0F
0F
0F
0F
0F
0F
0F
0F
0F
0F
0F
0F
0F
0F
1E
FE
F8
ENDCHAR

STARTCHAR ldbracelftmid
ENCODING 175
SWIDTH 720 0
DWIDTH 14 0
BBX 8 20 1 -5
BITMAP
0F
0F
0F
0F
0F
0F
0F
0F
0E
3C
FC
3C
0E
0F
0F
0F
0F
0F
0F
0F
ENDCHAR

STARTCHAR ldbracertmid
ENCODING 176
SWIDTH 720 0
DWIDTH 14 0
BBX 8 20 5 -5
BITMAP
F0
F0
F0
F0
F0
F0
F0
F0
70
3C
3F
3C
70
F0
F0
F0
F0
F0
F0
F0
ENDCHAR

STARTCHAR ldsigmalfttp
ENCODING 177
SWIDTH 720 0
DWIDTH 14 0
BBX 9 11 5 -5
BITMAP
FF80
FF80
7000
3800
3C00
1C00
0E00
0700
0780
0380
0180
ENDCHAR

STARTCHAR ldsigmalftbt
ENCODING 178
SWIDTH 720 0
DWIDTH 14 0
BBX 8 12 6 4
BITMAP
01
03
07
07
0E
1C
18
38
70
E0
FF
FF
ENDCHAR

STARTCHAR ldbackslash
ENCODING 179
SWIDTH 720 0
DWIDTH 14 0
BBX 14 20 0 -5
BITMAP
C000
E000
E000
7000
7000
3800
1C00
1C00
0E00
0700
0380
0380
01C0
00E0
00E0
0070
0038
003C
001C
000C
ENDCHAR

STARTCHAR ldslash
ENCODING 180
SWIDTH 720 0
DWIDTH 14 0
BBX 14 20 0 -5
BITMAP
000C
001C
001C
0038
0078
0070
00E0
01C0
01C0
0380
0700
0700
0E00
1C00
1C00
3800
7000
F000
E000
C000
ENDCHAR

STARTCHAR ldsigmarttp
ENCODING 181
SWIDTH 720 0
DWIDTH 14 0
BBX 14 4 0 2
BITMAP
FFFC
FFFC
001C
001C
ENDCHAR

STARTCHAR ldsigmartbt
ENCODING 182
SWIDTH 720 0
DWIDTH 14 0
BBX 14 4 0 4
BITMAP
001C
001C
FFFC
FFFC
ENDCHAR

STARTCHAR ldsigmamid
ENCODING 183
SWIDTH 720 0
DWIDTH 14 0
BBX 9 20 0 -5
BITMAP
8000
C000
E000
7000
7000
3800
1C00
0E00
0E00
0700
0780
0700
0E00
1C00
1C00
3800
7000
7000
E000
C000
ENDCHAR

STARTCHAR lessequal
ENCODING 188
SWIDTH 720 0
DWIDTH 14 0
BBX 12 10 1 0
BITMAP
00F0
07F0
3F80
F800
3F80
07F0
00F0
0000
FFF0
FFF0
ENDCHAR

STARTCHAR notequal
ENCODING 189
SWIDTH 720 0
DWIDTH 14 0
BBX 12 10 1 0
BITMAP
00C0
0180
FFF0
FFF0
0700
0E00
FFF0
FFF0
1800
3000
ENDCHAR

STARTCHAR greaterequal
ENCODING 190
SWIDTH 720 0
DWIDTH 14 0
BBX 12 10 1 0
BITMAP
F000
FE00
1FC0
01F0
1FC0
FE00
F000
0000
FFF0
FFF0
ENDCHAR

STARTCHAR integral
ENCODING 191
SWIDTH 720 0
DWIDTH 14 0
BBX 12 18 1 -4
BITMAP
01E0
07F0
0730
0F00
0F00
0F00
0F00
0F00
0F00
0F00
0F00
0F00
0F00
0F00
0F00
CE00
FE00
7800
ENDCHAR

STARTCHAR therefore
ENCODING 192
SWIDTH 720 0
DWIDTH 14 0
BBX 14 9 0 0
BITMAP
0780
0FC0
0780
0000
0000
0000
7878
FCFC
7878
ENDCHAR

STARTCHAR proportional
ENCODING 193
SWIDTH 720 0
DWIDTH 14 0
BBX 12 8 1 1
BITMAP
3CF0
7FF0
E780
E700
E700
E780
7FF0
3CF0
ENDCHAR

STARTCHAR infinity
ENCODING 194
SWIDTH 720 0
DWIDTH 14 0
BBX 14 8 0 1
BITMAP
3CF0
FFFC
E79C
E31C
E31C
E79C
FFFC
3CF0
ENDCHAR

STARTCHAR divide
ENCODING 195
SWIDTH 720 0
DWIDTH 14 0
BBX 12 10 1 0
BITMAP
0F00
0F00
0F00
0000
FFF0
FFF0
0000
0F00
0F00
0F00
ENDCHAR

STARTCHAR Delta
ENCODING 196
SWIDTH 720 0
DWIDTH 14 0
BBX 12 11 1 0
BITMAP
0F00
1F80
3FC0
79E0
F0F0
F0F0
F0F0
F0F0
F0F0
FFF0
FFF0
ENDCHAR

STARTCHAR gradient
ENCODING 197
SWIDTH 720 0
DWIDTH 14 0
BBX 12 11 1 0
BITMAP
FFF0
FFF0
F0F0
F0F0
F0F0
F0F0
F0F0
79E0
3FC0
1F80
0F00
ENDCHAR

STARTCHAR Phi
ENCODING 198
SWIDTH 720 0
DWIDTH 14 0
BBX 12 11 1 0
BITMAP
3FC0
0F00
3FC0
FFF0
CF30
CF30
FFF0
3FC0
0F00
0F00
3FC0
ENDCHAR

STARTCHAR Gamma
ENCODING 199
SWIDTH 720 0
DWIDTH 14 0
BBX 12 11 1 0
BITMAP
FFF0
FFF0
3C70
3C70
3C70
3C00
3C00
3C00
3C00
FF80
FF80
ENDCHAR

STARTCHAR similar
ENCODING 200
SWIDTH 720 0
DWIDTH 14 0
BBX 12 4 1 3
BITMAP
7830
FE30
C7F0
C1E0
ENDCHAR

STARTCHAR approxequal
ENCODING 201
SWIDTH 720 0
DWIDTH 14 0
BBX 12 7 1 1
BITMAP
7830
FE30
C7F0
C1E0
0000
FFF0
FFF0
ENDCHAR

STARTCHAR Theta
ENCODING 202
SWIDTH 720 0
DWIDTH 14 0
BBX 12 11 1 0
BITMAP
1F80
7FE0
79E0
F0F0
F6F0
F6F0
F6F0
F0F0
79E0
7FE0
1F80
ENDCHAR

STARTCHAR multiply
ENCODING 203
SWIDTH 720 0
DWIDTH 14 0
BBX 12 7 1 2
BITMAP
E070
F9F0
3FC0
0F00
3FC0
F9F0
E070
ENDCHAR

STARTCHAR Lambda
ENCODING 204
SWIDTH 720 0
DWIDTH 14 0
BBX 12 11 1 0
BITMAP
0F00
1F80
3FC0
79E0
F0F0
F0F0
F0F0
F0F0
F0F0
F0F0
F0F0
ENDCHAR

STARTCHAR arrowdblboth
ENCODING 205
SWIDTH 720 0
DWIDTH 14 0
BBX 14 9 0 1
BITMAP
1860
3030
7FF8
FFFC
E01C
FFFC
7FF8
3030
1860
ENDCHAR

STARTCHAR arrowdblright
ENCODING 206
SWIDTH 720 0
DWIDTH 14 0
BBX 14 9 0 1
BITMAP
0300
00C0
FFF0
FFFC
003C
FFFC
FFF0
00C0
0300
ENDCHAR

STARTCHAR equivalence
ENCODING 207
SWIDTH 720 0
DWIDTH 14 0
BBX 12 8 1 1
BITMAP
FFF0
FFF0
0000
FFF0
FFF0
0000
FFF0
FFF0
ENDCHAR

STARTCHAR Pi
ENCODING 208
SWIDTH 720 0
DWIDTH 14 0
BBX 12 11 1 0
BITMAP
FFF0
FFF0
79E0
79E0
79E0
79E0
79E0
79E0
79E0
79E0
79E0
ENDCHAR

STARTCHAR Psi
ENCODING 209
SWIDTH 720 0
DWIDTH 14 0
BBX 12 11 1 0
BITMAP
3FC0
0F00
CF30
CF30
CF30
CF30
EF70
7FE0
0F00
0F00
3FC0
ENDCHAR

STARTCHAR Sigma
ENCODING 211
SWIDTH 720 0
DWIDTH 14 0
BBX 12 11 1 0
BITMAP
FFF0
FFF0
7830
3C00
1E00
0F00
1E00
3C00
7830
FFF0
FFF0
ENDCHAR

STARTCHAR radical
ENCODING 214
SWIDTH 720 0
DWIDTH 14 0
BBX 13 16 1 -2
BITMAP
0078
0078
0078
0070
00F0
00F0
F0E0
F0E0
71E0
79E0
39C0
3DC0
1FC0
1F80
0F80
0F80
ENDCHAR

STARTCHAR Omega
ENCODING 215
SWIDTH 720 0
DWIDTH 14 0
BBX 12 11 1 0
BITMAP
3FC0
7FE0
F0F0
F0F0
F0F0
F0F0
70E0
30C0
39C0
F9F0
F9F0
ENDCHAR

STARTCHAR Xi
ENCODING 216
SWIDTH 720 0
DWIDTH 14 0
BBX 12 11 1 0
BITMAP
FFF0
FFF0
E070
0000
30C0
3FC0
3FC0
0000
E070
FFF0
FFF0
ENDCHAR

STARTCHAR Upsilon1
ENCODING 217
SWIDTH 720 0
DWIDTH 14 0
BBX 12 11 1 0
BITMAP
E070
F0F0
79E0
39C0
1F80
1F80
0F00
0F00
0F00
3FC0
3FC0
ENDCHAR

STARTCHAR propersubset
ENCODING 218
SWIDTH 720 0
DWIDTH 14 0
BBX 12 11 1 0
BITMAP
1FF0
7FF0
7800
F000
F000
F000
F000
F000
7800
7FF0
1FF0
ENDCHAR

STARTCHAR propersuperset
ENCODING 219
SWIDTH 720 0
DWIDTH 14 0
BBX 12 11 1 0
BITMAP
FF80
FFE0
01E0
00F0
00F0
00F0
00F0
00F0
01E0
FFE0
FF80
ENDCHAR

STARTCHAR intersection
ENCODING 220
SWIDTH 720 0
DWIDTH 14 0
BBX 12 11 1 0
BITMAP
1F80
7FE0
79E0
F0F0
F0F0
F0F0
F0F0
F0F0
F0F0
F0F0
F0F0
ENDCHAR

STARTCHAR union
ENCODING 221
SWIDTH 720 0
DWIDTH 14 0
BBX 12 11 1 0
BITMAP
F0F0
F0F0
F0F0
F0F0
F0F0
F0F0
F0F0
F0F0
79E0
7FE0
1F80
ENDCHAR

STARTCHAR logicaland
ENCODING 222
SWIDTH 720 0
DWIDTH 14 0
BBX 14 9 0 0
BITMAP
0780
0FC0
0FC0
1CE0
1CE0
3870
3870
7038
F03C
ENDCHAR

STARTCHAR logicalor
ENCODING 223
SWIDTH 720 0
DWIDTH 14 0
BBX 14 9 0 0
BITMAP
F03C
7038
3870
3870
1CE0
1CE0
0FC0
0FC0
0780
ENDCHAR

STARTCHAR logicalnot
ENCODING 224
SWIDTH 720 0
DWIDTH 14 0
BBX 12 5 1 3
BITMAP
FFF0
FFF0
00F0
00F0
00F0
ENDCHAR

STARTCHAR alpha
ENCODING 225
SWIDTH 720 0
DWIDTH 14 0
BBX 12 9 1 0
BITMAP
3E30
7FF0
F3E0
F3C0
F3C0
F3C0
F3C0
7FF0
3C70
ENDCHAR

STARTCHAR beta
ENCODING 226
SWIDTH 720 0
DWIDTH 14 0
BBX 13 16 0 -4
BITMAP
07E0
1FF8
1C78
1C78
3C78
3FE0
3FF0
3878
7878
7878
7FF0
7FE0
F000
F000
F000
F000
ENDCHAR

STARTCHAR chi
ENCODING 227
SWIDTH 720 0
DWIDTH 14 0
BBX 13 12 0 -3
BITMAP
1C18
1C38
1E78
0E70
07E0
07C0
0F80
1F80
39C0
71E0
F0E0
C0E0
ENDCHAR

STARTCHAR delta
ENCODING 228
SWIDTH 720 0
DWIDTH 14 0
BBX 12 12 1 0
BITMAP
0FC0
3FC0
3C00
3C00
0F00
3FC0
7BE0
F0F0
F0F0
F8F0
7FE0
3FC0
ENDCHAR

STARTCHAR epsilon
ENCODING 229
SWIDTH 720 0
DWIDTH 14 0
BBX 11 9 1 0
BITMAP
1FE0
7FE0
F000
FFC0
FFC0
F000
F000
FFC0
3FC0
ENDCHAR

STARTCHAR phi
ENCODING 230
SWIDTH 720 0
DWIDTH 14 0
BBX 12 16 1 -4
BITMAP
0180
0180
0180
1FC0
7FF0
7670
E670
E670
E670
E670
7FE0
3FC0
0C00
0C00
0C00
0C00
ENDCHAR

STARTCHAR gamma
ENCODING 231
SWIDTH 720 0
DWIDTH 14 0
BBX 12 12 1 -3
BITMAP
F070
F070
70F0
78E0
39C0
3DC0
1F80
1F80
0F00
0E00
1E00
3C00
ENDCHAR

STARTCHAR eta
ENCODING 232
SWIDTH 720 0
DWIDTH 14 0
BBX 12 12 1 -3
BITMAP
F7E0
FFF0
3CF0
3CF0
78F0
78E0
71E0
F1E0
F1C0
03C0
03C0
03C0
ENDCHAR

STARTCHAR iota
ENCODING 233
SWIDTH 720 0
DWIDTH 14 0
BBX 8 9 3 0
BITMAP
FC
FC
3C
78
78
78
F3
FF
7C
ENDCHAR

STARTCHAR theta
ENCODING 234
SWIDTH 720 0
DWIDTH 14 0
BBX 12 12 1 0
BITMAP
0FC0
3FE0
78E0
70F0
F0F0
FFF0
FFF0
F0F0
F0E0
71E0
7FC0
3F00
ENDCHAR

STARTCHAR kappa
ENCODING 235
SWIDTH 720 0
DWIDTH 14 0
BBX 12 9 1 0
BITMAP
79F0
7BC0
7F80
7F00
7F00
F780
F380
F3E0
F1E0
ENDCHAR

STARTCHAR lambda
ENCODING 236
SWIDTH 720 0
DWIDTH 14 0
BBX 12 12 1 0
BITMAP
3FC0
3FC0
03C0
03C0
03C0
07E0
0FE0
1EE0
1CE0
38F0
78F0
F0F0
ENDCHAR

STARTCHAR nu
ENCODING 238
SWIDTH 720 0
DWIDTH 14 0
BBX 12 9 1 0
BITMAP
FCF0
FCF0
3CF0
3CF0
3DE0
3DC0
3FC0
3F00
3C00
ENDCHAR

STARTCHAR partialdiff
ENCODING 239
SWIDTH 720 0
DWIDTH 14 0
BBX 12 12 1 0
BITMAP
FE00
FF80
07C0
01E0
3FE0
7FF0
F0F0
F0F0
F0F0
F0F0
7FE0
3FC0
ENDCHAR

STARTCHAR pi
ENCODING 240
SWIDTH 720 0
DWIDTH 14 0
BBX 12 9 1 0
BITMAP
FFF0
FFF0
79E0
79E0
79E0
71C0
F3C0
F3C0
F3C0
ENDCHAR

STARTCHAR psi
ENCODING 241
SWIDTH 720 0
DWIDTH 14 0
BBX 12 16 1 -4
BITMAP
0300
0300
0300
7370
7370
7370
7670
F670
E670
E660
7FE0
3FC0
0C00
0C00
0C00
0C00
ENDCHAR

STARTCHAR rho
ENCODING 242
SWIDTH 720 0
DWIDTH 14 0
BBX 12 12 1 -3
BITMAP
1FC0
3FE0
78F0
78F0
70F0
F0F0
F0F0
FFE0
FFC0
F000
F000
F000
ENDCHAR

STARTCHAR sigma
ENCODING 243
SWIDTH 720 0
DWIDTH 14 0
BBX 13 9 0 0
BITMAP
1FF8
7FF8
78E0
F8F0
F0F0
F1F0
F1E0
7FE0
3F80
ENDCHAR

STARTCHAR tau
ENCODING 244
SWIDTH 720 0
DWIDTH 14 0
BBX 12 9 1 0
BITMAP
FFC0
FFC0
3C00
3C00
3C00
3C00
3C70
3FF0
0FC0
ENDCHAR

STARTCHAR florin
ENCODING 246
SWIDTH 720 0
DWIDTH 14 0
BBX 13 14 0 -3
BITMAP
01F8
03F8
0780
0700
3FE0
3FE0
0700
0700
0F00
0E00
0E00
1E00
FC00
F800
ENDCHAR

STARTCHAR omega
ENCODING 247
SWIDTH 720 0
DWIDTH 14 0
BBX 14 9 0 0
BITMAP
701C
739C
739C
E39C
E39C
E39C
E798
FFF8
7CF0
ENDCHAR

STARTCHAR xi
ENCODING 248
SWIDTH 720 0
DWIDTH 14 0
BBX 12 16 1 -4
BITMAP
FFF0
FFF0
0F00
3C00
3C00
3F00
7F00
7000
F000
F800
FF80
3FE0
00F0
00F0
03F0
03C0
ENDCHAR

STARTCHAR upsilon
ENCODING 249
SWIDTH 720 0
DWIDTH 14 0
BBX 12 9 1 0
BITMAP
F0F0
F0F0
F0F0
F0F0
F0F0
F0E0
F1E0
7FC0
1F00
ENDCHAR

STARTCHAR zeta
ENCODING 250
SWIDTH 720 0
DWIDTH 14 0
BBX 12 16 1 -4
BITMAP
FFF0
FFF0
03C0
0F00
1E00
7C00
7800
F000
F000
F800
7FE0
3FF0
00F0
00F0
00E0
03C0
ENDCHAR

STARTCHAR arrowleft
ENCODING 251
SWIDTH 720 0
DWIDTH 14 0
BBX 14 8 0 1
BITMAP
0300
0F00
3C00
FFFC
FFFC
3C00
0F00
0300
ENDCHAR

STARTCHAR arrowup
ENCODING 252
SWIDTH 720 0
DWIDTH 14 0
BBX 11 17 2 -4
BITMAP
0400
0E00
1F00
3F80
7FC0
EEE0
CE60
0E00
0E00
0E00
0E00
0E00
0E00
0E00
0E00
0E00
0E00
ENDCHAR

STARTCHAR arrowright
ENCODING 253
SWIDTH 720 0
DWIDTH 14 0
BBX 14 8 0 1
BITMAP
0300
03C0
00F0
FFFC
FFFC
00F0
03C0
0300
ENDCHAR

STARTCHAR arrowdown
ENCODING 254
SWIDTH 720 0
DWIDTH 14 0
BBX 11 17 2 -4
BITMAP
0E00
0E00
0E00
0E00
0E00
0E00
0E00
0E00
0E00
0E00
CE60
EEE0
7FC0
3F80
1F00
0E00
0400
ENDCHAR
ENDFONT
